# xmcd
#
# Track frame offsets:
#	150
#	3950
#	22579
#	36669
#	48346
#	60138
#	70720
#	86274
#	102359
#	113268
#	128023
#	143380
#	156177
#	171269
#	186038
#	201793
#	204075
#	224487
#	236287
#	247004
#	259263
#	272670
#	285327
#
# Disc length: 3975 seconds
#
# Revision: 0
# Processed by: cddbd v1.5.2PL0 Copyright (c) Steve Scherf et al.
# Submitted via: dBpowerAMP V4.0
#
DISCID=270f8517
DTITLE=don williams - an evening with don williams
DYEAR=1900
DGENRE=country
TTITLE0=intro
TTITLE1=good ole boys like me
TTITLE2=she's in love with a rodeo man
TTITLE3=some broken hearts never mend
TTITLE4=the ties that bind
TTITLE5=louisiana saturday night
TTITLE6=till the rivers all run dry
TTITLE7=i recall a gypsy woman
TTITLE8=it must be love
TTITLE9=lay down beside me
TTITLE10=lord, i hope this day is good
TTITLE11=(I'm just a) country boy
TTITLE12=tulsa time
TTITLE13=amanda
TTITLE14=you're my best friend
TTITLE15=dialogue
TTITLE16=i believe in you
TTITLE17=i've got a wnnew in you
TTITLE18=love me tonight
TTITLE19=falling in love
TTITLE20=say it again
TTITLE21=she never knew me
TTITLE22=rake and ramblin' man
EXTD=an evening with don williams
EXTT0=
EXTT1=
EXTT2=
EXTT3=
EXTT4=
EXTT5=
EXTT6=
EXTT7=
EXTT8=
EXTT9=
EXTT10=
EXTT11=
EXTT12=
EXTT13=
EXTT14=
EXTT15=
EXTT16=
EXTT17=
EXTT18=
EXTT19=
EXTT20=
EXTT21=
EXTT22=
PLAYORDER=
